<svg width="560" height="420" viewBox="0 0 560 420" xmlns="http://www.w3.org/2000/svg" role="img" aria-labelledby="title desc">
  <title id="title">MindMate Wellness Illustration</title>
  <desc id="desc">Abstract shapes representing calm, growth, and connection.</desc>
  <defs>
    <linearGradient id="gradient" x1="0%" y1="0%" x2="100%" y2="100%">
      <stop offset="0%" stop-color="#6366F1"/>
      <stop offset="100%" stop-color="#8B5CF6"/>
    </linearGradient>
    <linearGradient id="accent" x1="0%" y1="100%" x2="100%" y2="0%">
      <stop offset="0%" stop-color="#22D3EE" stop-opacity="0.85"/>
      <stop offset="100%" stop-color="#14B8A6" stop-opacity="0.95"/>
    </linearGradient>
    <linearGradient id="glow" x1="0%" y1="0%" x2="0%" y2="100%">
      <stop offset="0%" stop-color="#FDE68A" stop-opacity="0.8"/>
      <stop offset="100%" stop-color="#F59E0B" stop-opacity="0.4"/>
    </linearGradient>
  </defs>
  <rect width="560" height="420" rx="32" fill="#1F2937"/>
  <rect x="24" y="24" width="512" height="372" rx="28" fill="#111827"/>
  <path d="M340 84c-44 0-80 36-80 80s36 80 80 80 80-36 80-80-36-80-80-80zm0 120a40 40 0 1 1 0-80 40 40 0 0 1 0 80z" fill="url(#gradient)"/>
  <path d="M206 264c-44 0-80 36-80 80h160c0-44-36-80-80-80z" fill="url(#accent)"/>
  <circle cx="164" cy="164" r="44" fill="url(#glow)"/>
  <path d="M420 308c28 0 52 20 56 48H364c4-28 28-48 56-48z" fill="#F472B6" fill-opacity="0.75"/>
  <circle cx="456" cy="140" r="18" fill="#38BDF8"/>
  <circle cx="116" cy="300" r="22" fill="#A855F7" fill-opacity="0.6"/>
  <rect x="260" y="220" width="160" height="92" rx="24" fill="#0F172A" stroke="#312E81" stroke-width="2"/>
  <path d="M292 256h96" stroke="#6366F1" stroke-width="6" stroke-linecap="round"/>
  <path d="M292 288h64" stroke="#22D3EE" stroke-width="6" stroke-linecap="round"/>
  <circle cx="276" cy="256" r="6" fill="#6366F1"/>
  <circle cx="276" cy="288" r="6" fill="#22D3EE"/>
</svg>

